<?xml version="1.0" encoding="utf-8"?>
<!-- Generator: Adobe Illustrator 22.0.1, SVG Export Plug-In . SVG Version: 6.00 Build 0)  -->
<svg version="1.1" id="Capa_1" xmlns="http://www.w3.org/2000/svg" xmlns:xlink="http://www.w3.org/1999/xlink" x="0px" y="0px"
	 viewBox="0 0 333.8 333.8" style="enable-background:new 0 0 333.8 333.8;" xml:space="preserve">
<style type="text/css">
	.st0{fill:url(#SVGID_1_);}
	.st1{fill:none;stroke:url(#SVGID_2_);stroke-width:5;stroke-miterlimit:10;}
</style>
<title>angry</title>
<linearGradient id="SVGID_1_" gradientUnits="userSpaceOnUse" x1="79.045" y1="176.3209" x2="254.772" y2="176.3209" gradientTransform="matrix(1 0 0 -1 0 336)">
	<stop  offset="0" style="stop-color:#00FF75"/>
	<stop  offset="1" style="stop-color:#00FFFF;stop-opacity:0.8"/>
</linearGradient>
<path class="st0" d="M97.2,229.8c39.6-35.9,99.9-35.9,139.6-0.1c3.9,3.6,10,3.4,13.6-0.5s3.4-10-0.5-13.6c-0.1,0-0.1-0.1-0.2-0.1
	c-47-42.4-118.5-42.4-165.4,0.2c-3.9,3.6-4.2,9.7-0.6,13.6C87.1,233.1,93.3,233.4,97.2,229.8L97.2,229.8z M136.4,115.3
	c-9.2-5.4-21-2.3-26.4,6.9s-2.3,21,6.9,26.4c9.2,5.4,21,2.3,26.4-6.9C148.7,132.5,145.6,120.7,136.4,115.3
	C136.4,115.3,136.4,115.3,136.4,115.3L136.4,115.3z M155.7,135.9c2.7-4.6,1.1-10.5-3.4-13.2c0,0,0,0,0,0L93.6,88.3
	c-4.6-2.7-10.5-1.1-13.2,3.5c-2.7,4.6-1.1,10.5,3.5,13.2l58.7,34.4c1.5,0.9,3.2,1.3,4.9,1.3C150.8,140.7,154,138.9,155.7,135.9
	L155.7,135.9z M190.6,141.7c5.4,9.2,17.2,12.3,26.4,6.9c9.2-5.4,12.3-17.2,6.9-26.4c-5.4-9.2-17.2-12.3-26.4-6.9
	C188.3,120.7,185.2,132.5,190.6,141.7C190.6,141.7,190.6,141.7,190.6,141.7L190.6,141.7z M191.3,139.4L250,105
	c4.6-2.7,6.1-8.6,3.4-13.2s-8.6-6.1-13.2-3.4l-58.7,34.4c-4.6,2.7-6.2,8.6-3.5,13.2c1.7,3,4.9,4.8,8.4,4.8
	C188.2,140.7,189.9,140.2,191.3,139.4L191.3,139.4z"/>
<linearGradient id="SVGID_2_" gradientUnits="userSpaceOnUse" x1="4.0609" y1="167.1177" x2="328.5" y2="167.1177">
	<stop  offset="0" style="stop-color:#00FF75"/>
	<stop  offset="1" style="stop-color:#00FFFF;stop-opacity:0.8"/>
</linearGradient>
<circle class="st1" cx="166.3" cy="167.1" r="159.7"/>
</svg>
