<svg id="Layer_1" data-name="Layer 1" xmlns="http://www.w3.org/2000/svg" xmlns:xlink="http://www.w3.org/1999/xlink" viewBox="0 0 75.79 9.98"><defs><style>.cls-1{fill:url(#linear-gradient);}</style><linearGradient id="linear-gradient" x1="-842.5" y1="-3238.82" x2="-829.18" y2="-3238.82" gradientTransform="matrix(0, 0.75, 0.75, 0, 3114.23, 1011.49)" gradientUnits="userSpaceOnUse"><stop offset="0" stop-color="#00ff75"/><stop offset="1" stop-color="aqua" stop-opacity="0.8"/></linearGradient></defs><title>arrow</title><path class="cls-1" d="M716.58,388.9l4.28-4.28c.08-.07.15-.15.15-.22a.77.77,0,0,0,0-.6c-.07-.08-.07-.15-.15-.23l-4.2-4.2a.73.73,0,0,0-1,0,.81.81,0,0,0-.23.52.83.83,0,0,0,.23.53l2.92,2.93H646a.75.75,0,0,0,0,1.5h72.5l-3,3a.79.79,0,0,0-.22.52.81.81,0,0,0,.22.53A.72.72,0,0,0,716.58,388.9Z" transform="translate(-645.28 -379.14)"/></svg>