<?xml version="1.0" encoding="utf-8"?>
<!-- Generator: Adobe Illustrator 22.0.1, SVG Export Plug-In . SVG Version: 6.00 Build 0)  -->
<svg version="1.1" id="Layer_1" xmlns="http://www.w3.org/2000/svg" xmlns:xlink="http://www.w3.org/1999/xlink" x="0px" y="0px"
	 viewBox="0 0 129 129" style="enable-background:new 0 0 129 129;" xml:space="preserve">
<style type="text/css">
	.st0{fill:url(#SVGID_1_);}
	.st1{fill:url(#SVGID_2_);}
</style>
<g>
	<g>
		<linearGradient id="SVGID_1_" gradientUnits="userSpaceOnUse" x1="33.5" y1="54.5364" x2="107.9273" y2="54.5364">
			<stop  offset="0" style="stop-color:#00FF75"/>
			<stop  offset="1" style="stop-color:#00FFFF;stop-opacity:0.8"/>
		</linearGradient>
		<path class="st0" d="M40.5,61.1c-1.6-1.6-4.2-1.6-5.8,0s-1.6,4.2,0,5.8l18.9,18.9c0.8,0.8,1.8,1.2,2.9,1.2c0.1,0,0.1,0,0.2,0
			c1.1-0.1,2.2-0.6,3-1.5L107,28.8c1.4-1.7,1.2-4.3-0.5-5.8c-1.7-1.4-4.3-1.2-5.8,0.5L56.2,76.8L40.5,61.1z"/>
		<linearGradient id="SVGID_2_" gradientUnits="userSpaceOnUse" x1="6.45" y1="64.5129" x2="122.4844" y2="64.5129">
			<stop  offset="0" style="stop-color:#00FF75"/>
			<stop  offset="1" style="stop-color:#00FFFF;stop-opacity:0.8"/>
		</linearGradient>
		<path class="st1" d="M95.1,15.3c-23-14.4-52.5-11-71.7,8.2C0.8,46.1,0.8,83,23.4,105.6c11.3,11.3,26.2,17,41,17s29.7-5.7,41-17
			c19.3-19.3,22.6-48.9,8.1-71.9c-1.2-1.9-3.7-2.5-5.6-1.3s-2.5,3.7-1.3,5.6c12.5,19.8,9.6,45.2-7,61.8c-19.4,19.4-51.1,19.4-70.5,0
			s-19.4-51.1,0-70.5C45.7,12.8,71,9.9,90.8,22.2c1.9,1.2,4.4,0.6,5.6-1.3S97,16.5,95.1,15.3z"/>
	</g>
</g>
</svg>
