<svg id="hud_oxygen_svg" data-name="hud oxygen svg" xmlns="http://www.w3.org/2000/svg" xmlns:xlink="http://www.w3.org/1999/xlink" viewBox="0 0 52.18 200.57"><defs><style>.cls-1{fill:url(#linear-gradient);}.cls-2{fill:url(#linear-gradient-2);}.cls-3{fill:none;stroke:aqua;stroke-miterlimit:10;stroke-width:3px;}.cls-4{fill:url(#linear-gradient-3);}</style><linearGradient id="linear-gradient" x1="8.41" y1="170.19" x2="60.59" y2="170.19" gradientUnits="userSpaceOnUse"><stop offset="0" stop-color="#00ff75"/><stop offset="1" stop-color="aqua" stop-opacity="0.8"/></linearGradient><linearGradient id="linear-gradient-2" x1="23.84" y1="110.96" x2="28.34" y2="110.96" xlink:href="#linear-gradient"/><linearGradient id="linear-gradient-3" x1="25.25" y1="97.94" x2="44.95" y2="97.94" xlink:href="#linear-gradient"/></defs><title>distance</title><g id="borderOxy"><path class="cls-1" d="M34.5,270.47A26.13,26.13,0,0,1,8.41,244.3V96.08a26.09,26.09,0,1,1,52.18,0V244.3A26.18,26.18,0,0,1,34.5,270.47Zm0-198.88A24.44,24.44,0,0,0,10.09,96.08V244.3a24.41,24.41,0,1,0,48.82,0V96.08A24.44,24.44,0,0,0,34.5,71.59Z" transform="translate(-8.41 -69.9)"/></g><rect id="lineOxy" class="cls-2" x="23.84" y="48.62" width="4.5" height="124.68"/><line class="cls-3" x1="17.84" y1="173.67" x2="34.34" y2="173.67"/><path class="cls-4" d="M44.93,101.74a.88.88,0,0,0-.23-.46.82.82,0,0,0-1-.17,7.25,7.25,0,0,1-3,.68,7.17,7.17,0,0,1-3.66-1,7.29,7.29,0,0,1-2.65-2.64,7.17,7.17,0,0,1-1-3.66,7.16,7.16,0,0,1,2.37-5.35.77.77,0,0,0,.21-1,.79.79,0,0,0-.82-.52,10.45,10.45,0,0,0-7,3.12A10.05,10.05,0,0,0,26,94a10.17,10.17,0,0,0-.77,3.91,9.85,9.85,0,0,0,.82,4,10.07,10.07,0,0,0,5.48,5.47,9.86,9.86,0,0,0,4,.82,10.34,10.34,0,0,0,9.33-6A.86.86,0,0,0,44.93,101.74Z" transform="translate(-8.41 -69.9)"/></svg>