<svg id="Layer_1" data-name="Layer 1" xmlns="http://www.w3.org/2000/svg" xmlns:xlink="http://www.w3.org/1999/xlink" viewBox="0 0 125.83 125.83"><defs><style>.cls-1{fill:none;stroke-miterlimit:10;stroke-width:2.83px;stroke:url(#linear-gradient);}.cls-2{fill:url(#linear-gradient-2);}.cls-3{fill:url(#linear-gradient-3);}.cls-4{fill:url(#linear-gradient-4);}.cls-5{fill:url(#linear-gradient-5);}.cls-6{fill:url(#linear-gradient-6);}.cls-7{fill:url(#linear-gradient-7);}.cls-8{fill:url(#linear-gradient-8);}.cls-9{fill:url(#linear-gradient-9);}.cls-10{fill:url(#linear-gradient-10);}</style><linearGradient id="linear-gradient" y1="65.08" x2="125.83" y2="65.08" gradientTransform="matrix(1, 0, 0, -1, 0, 128)" gradientUnits="userSpaceOnUse"><stop offset="0" stop-color="#0071bc"/><stop offset="0.13" stop-color="#007bc1"/><stop offset="0.36" stop-color="#0097ce"/><stop offset="0.66" stop-color="#00c3e3"/><stop offset="1" stop-color="aqua"/></linearGradient><linearGradient id="linear-gradient-2" x1="31.66" y1="47.25" x2="45.21" y2="47.25" gradientTransform="matrix(1, 0, 0, 1, 0, 0)" xlink:href="#linear-gradient"/><linearGradient id="linear-gradient-3" x1="47.92" y1="47.32" x2="59.71" y2="47.32" gradientTransform="matrix(1, 0, 0, 1, 0, 0)" xlink:href="#linear-gradient"/><linearGradient id="linear-gradient-4" x1="61.03" y1="47.32" x2="78.25" y2="47.32" gradientTransform="matrix(1, 0, 0, 1, 0, 0)" xlink:href="#linear-gradient"/><linearGradient id="linear-gradient-5" x1="76.51" y1="47.32" x2="92.95" y2="47.32" gradientTransform="matrix(1, 0, 0, 1, 0, 0)" xlink:href="#linear-gradient"/><linearGradient id="linear-gradient-6" x1="20.74" y1="80.92" x2="37.96" y2="80.92" gradientTransform="matrix(1, 0, 0, 1, 0, 0)" xlink:href="#linear-gradient"/><linearGradient id="linear-gradient-7" x1="38.91" y1="80.92" x2="55.54" y2="80.92" gradientTransform="matrix(1, 0, 0, 1, 0, 0)" xlink:href="#linear-gradient"/><linearGradient id="linear-gradient-8" x1="57.5" y1="80.92" x2="74.72" y2="80.92" gradientTransform="matrix(1, 0, 0, 1, 0, 0)" xlink:href="#linear-gradient"/><linearGradient id="linear-gradient-9" x1="77.24" y1="80.92" x2="81.52" y2="80.92" gradientTransform="matrix(1, 0, 0, 1, 0, 0)" xlink:href="#linear-gradient"/><linearGradient id="linear-gradient-10" x1="85.22" y1="80.92" x2="100.84" y2="80.92" gradientTransform="matrix(1, 0, 0, 1, 0, 0)" xlink:href="#linear-gradient"/></defs><title>playAgain</title><g id="Layer_2" data-name="Layer 2"><g id="Layer_3" data-name="Layer 3"><circle class="cls-1" cx="62.91" cy="62.91" r="61.5"/><path class="cls-2" d="M31.66,38.14a35,35,0,0,1,5.77-.39c2.63,0,4.51.5,5.77,1.51a5.52,5.52,0,0,1,2,4.37,6,6,0,0,1-1.74,4.48,8.75,8.75,0,0,1-6.13,2A10.79,10.79,0,0,1,35.88,50v6.75H31.66Zm4.23,8.57a6.53,6.53,0,0,0,1.43.11c2.27,0,3.67-1.15,3.67-3.08C41,42,39.78,41,37.65,41a7.27,7.27,0,0,0-1.76.17Z" transform="translate(0 0)"/><path class="cls-3" d="M47.92,37.89h4.28V53.18h7.5v3.58H47.92Z" transform="translate(0 0)"/><path class="cls-4" d="M66.8,51.92l-1.34,4.84H61L66.8,37.89h5.6l5.85,18.87H73.66L72.2,51.92Zm4.79-3.19-1.18-4c-.34-1.12-.67-2.52-1-3.64H69.4c-.28,1.12-.56,2.55-.87,3.64l-1.12,4Z" transform="translate(0 0)"/><path class="cls-5" d="M82.48,56.76V49l-6-11.14h4.87l1.93,4.54c.59,1.37,1,2.38,1.46,3.61h.06c.42-1.18.87-2.27,1.43-3.61l1.9-4.54h4.79l-6.22,11v7.87Z" transform="translate(0 0)"/><path class="cls-6" d="M26.5,85.52l-1.34,4.84H20.74L26.5,71.49h5.6L38,90.36H33.36l-1.46-4.84Zm4.79-3.19-1.18-4c-.34-1.12-.67-2.52-1-3.64h-.06c-.28,1.12-.56,2.55-.87,3.64l-1.12,4Z" transform="translate(0 0)"/><path class="cls-7" d="M55.54,89.49a21.11,21.11,0,0,1-6.3,1.06c-3.44,0-5.94-.87-7.67-2.55a9.13,9.13,0,0,1-2.66-6.86c0-6.27,4.59-9.86,10.78-9.86a13,13,0,0,1,5.24.92L54,75.63a10.45,10.45,0,0,0-4.4-.81c-3.56,0-6.24,2-6.24,6.1,0,3.89,2.44,6.19,5.94,6.19a5.71,5.71,0,0,0,2.1-.28V82.88H48.51V79.55h7Z" transform="translate(0 0)"/><path class="cls-8" d="M63.27,85.52l-1.34,4.84H57.5l5.77-18.87h5.6l5.85,18.87H70.13l-1.46-4.84Zm4.79-3.19-1.18-4c-.34-1.12-.67-2.52-1-3.64h-.06c-.28,1.12-.56,2.55-.87,3.64l-1.12,4Z" transform="translate(0 0)"/><path class="cls-9" d="M81.52,71.49V90.36H77.24V71.49Z" transform="translate(0 0)"/><path class="cls-10" d="M85.22,90.36V71.49h5l3.92,6.92a54.7,54.7,0,0,1,3.08,6.47h.08A70,70,0,0,1,96.92,77V71.49h3.92V90.36H96.36l-4-7.28a70,70,0,0,1-3.28-6.66l-.08,0c.11,2.49.17,5.15.17,8.23v5.68Z" transform="translate(0 0)"/></g></g></svg>