<?xml version="1.0" encoding="utf-8"?>
<!-- Generator: Adobe Illustrator 22.0.1, SVG Export Plug-In . SVG Version: 6.00 Build 0)  -->
<svg version="1.1" id="Layer_1" xmlns="http://www.w3.org/2000/svg" xmlns:xlink="http://www.w3.org/1999/xlink" x="0px" y="0px"
	 viewBox="0 0 125.8 125.8" style="enable-background:new 0 0 125.8 125.8;" xml:space="preserve">
<style type="text/css">
	.st0{fill:none;stroke:url(#SVGID_1_);stroke-width:2.83;stroke-miterlimit:10;}
	.st1{fill:url(#SVGID_2_);}
	.st2{fill:url(#SVGID_3_);}
	.st3{fill:url(#SVGID_4_);}
	.st4{fill:url(#SVGID_5_);}
	.st5{fill:url(#SVGID_6_);}
	.st6{fill:url(#SVGID_7_);}
	.st7{fill:url(#SVGID_8_);}
	.st8{fill:url(#SVGID_9_);}
	.st9{fill:url(#SVGID_10_);}
</style>
<title>playAgain</title>
<linearGradient id="SVGID_1_" gradientUnits="userSpaceOnUse" x1="-5.000153e-03" y1="62.91" x2="125.825" y2="62.91">
	<stop  offset="0" style="stop-color:#00FF75"/>
	<stop  offset="1" style="stop-color:#00FFFF;stop-opacity:0.8"/>
</linearGradient>
<circle class="st0" cx="62.9" cy="62.9" r="61.5"/>
<linearGradient id="SVGID_2_" gradientUnits="userSpaceOnUse" x1="31.66" y1="80.752" x2="45.2052" y2="80.752" gradientTransform="matrix(1 0 0 -1 0 128)">
	<stop  offset="0" style="stop-color:#00FF75"/>
	<stop  offset="1" style="stop-color:#00FFFF;stop-opacity:0.8"/>
</linearGradient>
<path class="st1" d="M31.7,38.1c1.9-0.3,3.8-0.4,5.8-0.4c2.6,0,4.5,0.5,5.8,1.5c1.3,1.1,2,2.7,2,4.4c0.1,1.7-0.6,3.3-1.7,4.5
	c-1.7,1.4-3.9,2.1-6.1,2c-0.5,0-1,0-1.4-0.1v6.8h-4.2V38.1z M35.9,46.7c0.5,0.1,1,0.1,1.4,0.1c2.3,0,3.7-1.2,3.7-3.1
	c0-1.7-1.2-2.7-3.3-2.7c-0.6,0-1.2,0-1.8,0.2L35.9,46.7z"/>
<linearGradient id="SVGID_3_" gradientUnits="userSpaceOnUse" x1="47.92" y1="80.675" x2="59.7" y2="80.675" gradientTransform="matrix(1 0 0 -1 0 128)">
	<stop  offset="0" style="stop-color:#00FF75"/>
	<stop  offset="1" style="stop-color:#00FFFF;stop-opacity:0.8"/>
</linearGradient>
<path class="st2" d="M47.9,37.9h4.3v15.3h7.5v3.6H47.9V37.9z"/>
<linearGradient id="SVGID_4_" gradientUnits="userSpaceOnUse" x1="61.03" y1="80.675" x2="78.25" y2="80.675" gradientTransform="matrix(1 0 0 -1 0 128)">
	<stop  offset="0" style="stop-color:#00FF75"/>
	<stop  offset="1" style="stop-color:#00FFFF;stop-opacity:0.8"/>
</linearGradient>
<path class="st3" d="M66.8,51.9l-1.3,4.8H61l5.8-18.9h5.6l5.8,18.9h-4.6l-1.5-4.8H66.8z M71.6,48.7l-1.2-4c-0.3-1.1-0.7-2.5-1-3.6h0
	c-0.3,1.1-0.6,2.5-0.9,3.6l-1.1,4H71.6z"/>
<linearGradient id="SVGID_5_" gradientUnits="userSpaceOnUse" x1="76.51" y1="80.69" x2="92.95" y2="80.69" gradientTransform="matrix(1 0 0 -1 0 128)">
	<stop  offset="0" style="stop-color:#00FF75"/>
	<stop  offset="1" style="stop-color:#00FFFF;stop-opacity:0.8"/>
</linearGradient>
<path class="st4" d="M82.5,56.8V49l-6-11.1h4.9l1.9,4.5c0.6,1.4,1,2.4,1.5,3.6h0.1c0.4-1.2,0.9-2.3,1.4-3.6l1.9-4.5h4.8l-6.2,11v7.9
	L82.5,56.8z"/>
<linearGradient id="SVGID_6_" gradientUnits="userSpaceOnUse" x1="20.74" y1="47.075" x2="37.96" y2="47.075" gradientTransform="matrix(1 0 0 -1 0 128)">
	<stop  offset="0" style="stop-color:#00FF75"/>
	<stop  offset="1" style="stop-color:#00FFFF;stop-opacity:0.8"/>
</linearGradient>
<path class="st5" d="M26.5,85.5l-1.3,4.8h-4.4l5.8-18.9h5.6L38,90.4h-4.6l-1.5-4.8L26.5,85.5z M31.3,82.3l-1.2-4
	c-0.3-1.1-0.7-2.5-1-3.6h-0.1c-0.3,1.1-0.6,2.6-0.9,3.6l-1.1,4H31.3z"/>
<linearGradient id="SVGID_7_" gradientUnits="userSpaceOnUse" x1="38.9008" y1="47.0884" x2="55.54" y2="47.0884" gradientTransform="matrix(1 0 0 -1 0 128)">
	<stop  offset="0" style="stop-color:#00FF75"/>
	<stop  offset="1" style="stop-color:#00FFFF;stop-opacity:0.8"/>
</linearGradient>
<path class="st6" d="M55.5,89.5c-2,0.7-4.2,1-6.3,1.1c-3.4,0-5.9-0.9-7.7-2.6c-1.8-1.8-2.8-4.3-2.7-6.9c0-6.3,4.6-9.9,10.8-9.9
	c1.8-0.1,3.6,0.3,5.2,0.9L54,75.6c-1.4-0.6-2.9-0.9-4.4-0.8c-3.6,0-6.2,2-6.2,6.1c0,3.9,2.4,6.2,5.9,6.2c0.7,0,1.4-0.1,2.1-0.3v-4
	h-2.9v-3.3h7L55.5,89.5z"/>
<linearGradient id="SVGID_8_" gradientUnits="userSpaceOnUse" x1="57.5" y1="47.075" x2="74.72" y2="47.075" gradientTransform="matrix(1 0 0 -1 0 128)">
	<stop  offset="0" style="stop-color:#00FF75"/>
	<stop  offset="1" style="stop-color:#00FFFF;stop-opacity:0.8"/>
</linearGradient>
<path class="st7" d="M63.3,85.5l-1.3,4.8h-4.4l5.8-18.9h5.6l5.8,18.9h-4.6l-1.5-4.8L63.3,85.5z M68.1,82.3l-1.2-4
	c-0.3-1.1-0.7-2.5-1-3.6h-0.1c-0.3,1.1-0.6,2.6-0.9,3.6l-1.1,4H68.1z"/>
<linearGradient id="SVGID_9_" gradientUnits="userSpaceOnUse" x1="77.24" y1="47.075" x2="81.52" y2="47.075" gradientTransform="matrix(1 0 0 -1 0 128)">
	<stop  offset="0" style="stop-color:#00FF75"/>
	<stop  offset="1" style="stop-color:#00FFFF;stop-opacity:0.8"/>
</linearGradient>
<path class="st8" d="M81.5,71.5v18.9h-4.3V71.5H81.5z"/>
<linearGradient id="SVGID_10_" gradientUnits="userSpaceOnUse" x1="85.22" y1="47.075" x2="100.84" y2="47.075" gradientTransform="matrix(1 0 0 -1 0 128)">
	<stop  offset="0" style="stop-color:#00FF75"/>
	<stop  offset="1" style="stop-color:#00FFFF;stop-opacity:0.8"/>
</linearGradient>
<path class="st9" d="M85.2,90.4V71.5h5l3.9,6.9c1.2,2.1,2.2,4.2,3.1,6.5h0.1c-0.3-2.6-0.4-5.2-0.4-7.9v-5.5h3.9v18.9h-4.5l-4-7.3
	c-1.2-2.2-2.3-4.4-3.3-6.7H89c0.1,2.5,0.2,5.2,0.2,8.2v5.7L85.2,90.4z"/>
</svg>
