<svg id="sound_button_svg" data-name="sound button svg" xmlns="http://www.w3.org/2000/svg" xmlns:xlink="http://www.w3.org/1999/xlink" viewBox="0 0 86.39 86.39"><defs><style>.cls-1{fill:url(#linear-gradient);}.cls-2,.cls-3,.cls-4,.cls-5{fill:none;stroke-miterlimit:10;}.cls-2,.cls-3,.cls-4{stroke-linecap:round;stroke-width:3px;}.cls-2{stroke:url(#linear-gradient-2);}.cls-3{stroke:url(#linear-gradient-3);}.cls-4{stroke:url(#linear-gradient-4);}.cls-5{stroke-width:2px;stroke:url(#linear-gradient-5);}</style><linearGradient id="linear-gradient" x1="33.29" y1="53.24" x2="54.31" y2="53.24" gradientUnits="userSpaceOnUse"><stop offset="0" stop-color="#00ff75"/><stop offset="1" stop-color="aqua" stop-opacity="0.8"/></linearGradient><linearGradient id="linear-gradient-2" x1="49.86" y1="43.45" x2="64.16" y2="43.45" xlink:href="#linear-gradient"/><linearGradient id="linear-gradient-3" x1="47.22" y1="51.92" x2="57.15" y2="51.92" xlink:href="#linear-gradient"/><linearGradient id="linear-gradient-4" x1="47.22" y1="34.03" x2="57.15" y2="34.03" xlink:href="#linear-gradient"/><linearGradient id="linear-gradient-5" x1="282.65" y1="-133.85" x2="282.65" y2="-19.85" gradientTransform="matrix(0.75, 0, 0, -0.75, -169.79, -14.71)" xlink:href="#linear-gradient"/></defs><title>soundOn</title><path class="cls-1" d="M42,45.16H36.68a3.44,3.44,0,0,0-3.39,3.47v9.26a3.18,3.18,0,0,0,3.16,3.17h5.73l10.85,7a.84.84,0,0,0,1.28-.68V39.13A.87.87,0,0,0,53,38.38L42.4,45.08A.9.9,0,0,1,42,45.16Z" transform="translate(-11.06 -11.06)"/><g id="lines"><line class="cls-2" x1="51.36" y1="43.45" x2="62.66" y2="43.45"/><line class="cls-3" x1="55.65" y1="55.43" x2="48.72" y2="48.42"/><line class="cls-4" x1="48.72" y1="37.49" x2="55.65" y2="30.56"/></g><circle id="roundButtonLine" class="cls-5" cx="43.2" cy="43.2" r="42.2"/></svg>