<?xml version="1.0" encoding="utf-8"?>
<!-- Generator: Adobe Illustrator 22.0.1, SVG Export Plug-In . SVG Version: 6.00 Build 0)  -->
<svg version="1.1" id="Layer_1" xmlns="http://www.w3.org/2000/svg" xmlns:xlink="http://www.w3.org/1999/xlink" x="0px" y="0px"
	 viewBox="0 0 125.8 125.8" style="enable-background:new 0 0 125.8 125.8;" xml:space="preserve">
<style type="text/css">
	.st0{fill:none;stroke:url(#SVGID_1_);stroke-width:3.5;stroke-miterlimit:10;}
	.st1{fill:url(#SVGID_2_);}
	.st2{fill:url(#SVGID_3_);}
	.st3{fill:url(#SVGID_4_);}
	.st4{fill:url(#SVGID_5_);}
	.st5{fill:url(#SVGID_6_);}
</style>
<title>Asset 5</title>
<linearGradient id="SVGID_1_" gradientUnits="userSpaceOnUse" x1="-0.33" y1="62.92" x2="126.17" y2="62.92">
	<stop  offset="0" style="stop-color:#00FF75"/>
	<stop  offset="1" style="stop-color:#00FFFF;stop-opacity:0.8"/>
</linearGradient>
<circle class="st0" cx="62.9" cy="62.9" r="61.5"/>
<linearGradient id="SVGID_2_" gradientUnits="userSpaceOnUse" x1="21.84" y1="64.7391" x2="35.91" y2="64.7391" gradientTransform="matrix(1 0 0 -1 0 128)">
	<stop  offset="0" style="stop-color:#00FF75"/>
	<stop  offset="1" style="stop-color:#00FFFF;stop-opacity:0.8"/>
</linearGradient>
<path class="st1" d="M22.6,71.4c1.4,0.7,2.9,1,4.4,1c2.5,0,3.7-1.3,3.7-3c0-2-1.2-2.9-3.5-4.4c-3.7-2.2-5.1-5.1-5.1-7.5
	c0-4.3,2.9-7.9,8.5-7.9c1.5,0,2.9,0.3,4.2,1L34.1,55c-1-0.6-2.2-0.9-3.4-0.9c-2.2,0-3.3,1.4-3.3,2.8c0,1.6,0.8,2.4,3.7,4.2
	c3.6,2.2,4.9,4.9,4.9,7.7c0,4.9-3.6,8.2-8.9,8.2c-1.8,0-3.5-0.3-5.2-1.1L22.6,71.4z"/>
<linearGradient id="SVGID_3_" gradientUnits="userSpaceOnUse" x1="37.11" y1="64.755" x2="51.91" y2="64.755" gradientTransform="matrix(1 0 0 -1 0 128)">
	<stop  offset="0" style="stop-color:#00FF75"/>
	<stop  offset="1" style="stop-color:#00FFFF;stop-opacity:0.8"/>
</linearGradient>
<path class="st2" d="M41.9,54.6h-4.8v-4.8h14.8v4.8h-4.8v22.1h-5.2V54.6z"/>
<linearGradient id="SVGID_4_" gradientUnits="userSpaceOnUse" x1="51.31" y1="64.78" x2="68.67" y2="64.78" gradientTransform="matrix(1 0 0 -1 0 128)">
	<stop  offset="0" style="stop-color:#00FF75"/>
	<stop  offset="1" style="stop-color:#00FFFF;stop-opacity:0.8"/>
</linearGradient>
<path class="st3" d="M57.6,70.6l-1.2,6.2h-5.1l5.8-27h6.3l5.2,27h-5.1l-1.2-6.2H57.6z M62,66.5l-0.9-5.6c-0.3-1.6-0.6-4.3-0.9-6.1
	h-0.1c-0.3,1.8-0.7,4.6-1,6.2l-1,5.6H62z"/>
<linearGradient id="SVGID_5_" gradientUnits="userSpaceOnUse" x1="71.63" y1="64.815" x2="87.51" y2="64.815" gradientTransform="matrix(1 0 0 -1 0 128)">
	<stop  offset="0" style="stop-color:#00FF75"/>
	<stop  offset="1" style="stop-color:#00FFFF;stop-opacity:0.8"/>
</linearGradient>
<path class="st4" d="M71.6,50.2c1.9-0.3,3.8-0.5,5.7-0.5c2.9,0,5.4,0.4,7.2,2s2.1,3.3,2.1,5.6c0.1,2.9-1.5,5.5-4.2,6.8v0.1
	c1.8,0.7,2.8,2.4,3.3,5.3c0.4,2.5,0.9,4.9,1.7,7.3H82c-0.6-2.1-1.1-4.3-1.3-6.4c-0.4-3.4-1.3-4.3-3.1-4.3h-0.8v10.7h-5.2V50.2z
	 M76.9,61.9h0.9c2.3,0,3.6-1.8,3.6-4.2s-0.9-3.9-3.3-4c-0.4,0-0.8,0-1.2,0.2V61.9z"/>
<linearGradient id="SVGID_6_" gradientUnits="userSpaceOnUse" x1="88.47" y1="64.755" x2="103.27" y2="64.755" gradientTransform="matrix(1 0 0 -1 0 128)">
	<stop  offset="0" style="stop-color:#00FF75"/>
	<stop  offset="1" style="stop-color:#00FFFF;stop-opacity:0.8"/>
</linearGradient>
<path class="st5" d="M93.2,54.6h-4.8v-4.8h14.8v4.8h-4.8v22.1h-5.2V54.6z"/>
</svg>
