<svg xmlns="http://www.w3.org/2000/svg" xmlns:xlink="http://www.w3.org/1999/xlink" viewBox="0 0 125.83 125.83"><defs><style>.cls-1{fill:none;stroke-miterlimit:10;stroke-width:2.83px;stroke:url(#linear-gradient);}.cls-2{fill:url(#linear-gradient-2);}.cls-3{fill:url(#linear-gradient-3);}.cls-4{fill:url(#linear-gradient-4);}.cls-5{fill:url(#linear-gradient-5);}.cls-6{fill:url(#linear-gradient-6);}</style><linearGradient id="linear-gradient" y1="62.92" x2="125.83" y2="62.92" gradientUnits="userSpaceOnUse"><stop offset="0" stop-color="#0071bc"/><stop offset="0.13" stop-color="#007bc1"/><stop offset="0.36" stop-color="#0097ce"/><stop offset="0.66" stop-color="#00c3e3"/><stop offset="1" stop-color="aqua"/></linearGradient><linearGradient id="linear-gradient-2" x1="21.83" y1="63.24" x2="35.91" y2="63.24" xlink:href="#linear-gradient"/><linearGradient id="linear-gradient-3" x1="37.11" y1="63.24" x2="51.91" y2="63.24" xlink:href="#linear-gradient"/><linearGradient id="linear-gradient-4" x1="51.31" y1="63.24" x2="68.67" y2="63.24" xlink:href="#linear-gradient"/><linearGradient id="linear-gradient-5" x1="71.63" y1="63.18" x2="87.51" y2="63.18" xlink:href="#linear-gradient"/><linearGradient id="linear-gradient-6" x1="88.47" y1="63.24" x2="103.27" y2="63.24" xlink:href="#linear-gradient"/></defs><title>Asset 5</title><g id="Layer_2" data-name="Layer 2"><g id="Layer_3" data-name="Layer 3"><circle class="cls-1" cx="62.92" cy="62.92" r="61.5"/><path class="cls-2" d="M22.59,71.36a10.23,10.23,0,0,0,4.44,1c2.48,0,3.68-1.28,3.68-3,0-2-1.2-2.92-3.48-4.4-3.68-2.24-5.08-5.08-5.08-7.52,0-4.32,2.88-7.92,8.52-7.92a9.21,9.21,0,0,1,4.24,1L34.07,55a6.42,6.42,0,0,0-3.44-.92c-2.24,0-3.32,1.36-3.32,2.8,0,1.6.8,2.44,3.72,4.2,3.56,2.16,4.88,4.88,4.88,7.72C35.91,73.72,32.27,77,27,77a11.84,11.84,0,0,1-5.16-1.08Z"/><path class="cls-3" d="M41.87,54.61H37.11V49.77h14.8v4.84h-4.8V76.72H41.87Z"/><path class="cls-4" d="M57.59,70.56l-1.2,6.16H51.31l5.84-27h6.28l5.24,27H63.59l-1.16-6.16ZM62,66.48l-.88-5.64c-.28-1.64-.64-4.32-.88-6.12h-.12c-.28,1.8-.68,4.6-1,6.16l-1,5.6Z"/><path class="cls-5" d="M71.63,50.17a31.31,31.31,0,0,1,5.72-.52c2.88,0,5.44.4,7.2,2s2.12,3.28,2.12,5.6A7.18,7.18,0,0,1,82.51,64v.08c1.84.72,2.76,2.44,3.28,5.32a43.4,43.4,0,0,0,1.72,7.32H82a37.29,37.29,0,0,1-1.32-6.44C80.23,66.92,79.39,66,77.63,66h-.76V76.72H71.63Zm5.24,11.76h.92c2.28,0,3.6-1.84,3.6-4.2s-.92-3.92-3.28-4a3.73,3.73,0,0,0-1.24.16Z"/><path class="cls-6" d="M93.23,54.61H88.47V49.77h14.8v4.84h-4.8V76.72H93.23Z"/></g></g></svg>