<?xml version="1.0" encoding="utf-8"?>
<!-- Generator: Adobe Illustrator 22.0.1, SVG Export Plug-In . SVG Version: 6.00 Build 0)  -->
<svg version="1.1" id="Layer_2" xmlns="http://www.w3.org/2000/svg" xmlns:xlink="http://www.w3.org/1999/xlink" x="0px" y="0px"
	 viewBox="0 0 112.4 97.8" style="enable-background:new 0 0 112.4 97.8;" xml:space="preserve">
<style type="text/css">
	.st0{display:none;fill:none;stroke:url(#SVGID_1_);stroke-width:1.57;stroke-miterlimit:10;}
	.st1{display:none;fill:url(#SVGID_2_);}
	.st2{display:none;fill:none;stroke:url(#SVGID_3_);stroke-width:1.57;stroke-miterlimit:10;}
	.st3{display:none;fill:url(#SVGID_4_);}
	.st4{display:none;fill:none;stroke:url(#SVGID_5_);stroke-width:1.57;stroke-miterlimit:10;}
	.st5{display:none;fill:url(#SVGID_6_);}
	.st6{fill:none;stroke:url(#SVGID_7_);stroke-width:2;stroke-miterlimit:10;}
	.st7{fill:none;stroke:url(#SVGID_8_);stroke-width:2;stroke-miterlimit:10;}
	.st8{display:none;fill:none;stroke:url(#SVGID_9_);stroke-linecap:round;stroke-miterlimit:10;}
	.st9{display:none;}
	.st10{display:inline;fill:none;stroke:url(#SVGID_10_);stroke-width:1.42;stroke-miterlimit:10;}
	.st11{display:inline;fill:none;stroke:url(#SVGID_11_);stroke-width:0.8;stroke-miterlimit:10;}
	.st12{display:inline;fill:none;stroke:url(#SVGID_12_);stroke-width:0.6;stroke-miterlimit:10;}
	.st13{display:inline;fill:url(#SVGID_13_);}
	.st14{display:inline;fill:none;stroke:url(#SVGID_14_);stroke-width:0.88;stroke-miterlimit:10;}
	.st15{display:inline;fill:none;stroke:url(#SVGID_15_);stroke-linecap:round;stroke-miterlimit:10;}
	.st16{display:inline;fill:none;stroke:url(#SVGID_16_);stroke-linecap:round;stroke-miterlimit:10;stroke-dasharray:2.05,3.08;}
	.st17{display:inline;fill:none;stroke:url(#SVGID_17_);stroke-linecap:round;stroke-miterlimit:10;}
	.st18{display:inline;fill:none;stroke:url(#SVGID_18_);stroke-linecap:round;stroke-miterlimit:10;stroke-dasharray:2.05,3.08;}
	.st19{display:none;fill:none;stroke:url(#SVGID_19_);stroke-linecap:round;stroke-miterlimit:10;}
	.st20{fill:none;stroke:url(#SVGID_20_);stroke-width:2;stroke-miterlimit:10;}
	.st21{fill:none;stroke:url(#SVGID_21_);stroke-width:2;stroke-miterlimit:10;}
	.st22{fill:none;stroke:url(#SVGID_22_);stroke-width:2;stroke-miterlimit:10;}
	.st23{fill:url(#SVGID_23_);}
	.st24{fill:url(#SVGID_24_);}
	.st25{fill:url(#SVGID_25_);}
</style>
<linearGradient id="SVGID_1_" gradientUnits="userSpaceOnUse" x1="12.9338" y1="53.75" x2="31.4338" y2="53.75" gradientTransform="matrix(1 0 0 -1 0 100)">
	<stop  offset="1.257622e-03" style="stop-color:#000000"/>
	<stop  offset="1" style="stop-color:#FFFFFF"/>
</linearGradient>
<line class="st0" x1="17.4" y1="46.2" x2="31.4" y2="46.2"/>
<linearGradient id="SVGID_2_" gradientUnits="userSpaceOnUse" x1="12.9338" y1="46.25" x2="19.1938" y2="46.25">
	<stop  offset="1.257622e-03" style="stop-color:#000000"/>
	<stop  offset="1" style="stop-color:#FFFFFF"/>
</linearGradient>
<polygon class="st1" points="12.9,46.2 19.2,48.8 17.7,46.2 19.2,43.7 "/>
<linearGradient id="SVGID_3_" gradientUnits="userSpaceOnUse" x1="112.4338" y1="53.75" x2="93.9338" y2="53.75" gradientTransform="matrix(1 0 0 -1 0 100)">
	<stop  offset="1.257622e-03" style="stop-color:#000000"/>
	<stop  offset="1" style="stop-color:#FFFFFF"/>
</linearGradient>
<line class="st2" x1="108" y1="46.2" x2="93.9" y2="46.2"/>
<linearGradient id="SVGID_4_" gradientUnits="userSpaceOnUse" x1="106.1638" y1="46.25" x2="112.4338" y2="46.25">
	<stop  offset="1.257622e-03" style="stop-color:#000000"/>
	<stop  offset="1" style="stop-color:#FFFFFF"/>
</linearGradient>
<polygon class="st3" points="112.4,46.2 106.2,43.7 107.7,46.2 106.2,48.8 "/>
<linearGradient id="SVGID_5_" gradientUnits="userSpaceOnUse" x1="62.1838" y1="100" x2="62.1838" y2="81.5" gradientTransform="matrix(1 0 0 -1 0 100)">
	<stop  offset="1.257622e-03" style="stop-color:#000000"/>
	<stop  offset="1" style="stop-color:#FFFFFF"/>
</linearGradient>
<line class="st4" x1="62.2" y1="4.4" x2="62.2" y2="18.5"/>
<linearGradient id="SVGID_6_" gradientUnits="userSpaceOnUse" x1="59.6238" y1="3.13" x2="64.7438" y2="3.13">
	<stop  offset="1.257622e-03" style="stop-color:#000000"/>
	<stop  offset="1" style="stop-color:#FFFFFF"/>
</linearGradient>
<polygon class="st5" points="62.2,0 59.6,6.3 62.2,4.8 64.7,6.3 "/>
<linearGradient id="SVGID_7_" gradientUnits="userSpaceOnUse" x1="62.9938" y1="68.25" x2="62.9938" y2="32.25" gradientTransform="matrix(1 0 0 -1 0 100)">
	<stop  offset="0" style="stop-color:#00FF75"/>
	<stop  offset="1" style="stop-color:#00FFFF;stop-opacity:0.8"/>
</linearGradient>
<ellipse class="st6" cx="63" cy="49.8" rx="13.6" ry="17"/>
<linearGradient id="SVGID_8_" gradientUnits="userSpaceOnUse" x1="62.9338" y1="70.75" x2="62.9338" y2="97.75">
	<stop  offset="0" style="stop-color:#00FF75"/>
	<stop  offset="1" style="stop-color:#00FFFF;stop-opacity:0.8"/>
</linearGradient>
<path class="st7" d="M31.9,97.8c0-14.4,13.9-26,31-26s31,11.6,31,26"/>
<linearGradient id="SVGID_9_" gradientUnits="userSpaceOnUse" x1="14.0188" y1="93.25" x2="14.0188" y2="60.07" gradientTransform="matrix(1 0 0 -1 0 100)">
	<stop  offset="0" style="stop-color:#0071BC"/>
	<stop  offset="0.13" style="stop-color:#007BC1"/>
	<stop  offset="0.36" style="stop-color:#0097CE"/>
	<stop  offset="0.66" style="stop-color:#00C3E3"/>
	<stop  offset="1" style="stop-color:#00FFFF"/>
</linearGradient>
<line class="st8" x1="13.6" y1="7.8" x2="14.4" y2="7.2"/>
<g class="st9">
	
		<linearGradient id="SVGID_10_" gradientUnits="userSpaceOnUse" x1="-55.7762" y1="53.5" x2="-18.8562" y2="53.5" gradientTransform="matrix(1 0 0 -1 0 100)">
		<stop  offset="0" style="stop-color:#0071BC"/>
		<stop  offset="0.13" style="stop-color:#007BC1"/>
		<stop  offset="0.36" style="stop-color:#0097CE"/>
		<stop  offset="0.66" style="stop-color:#00C3E3"/>
		<stop  offset="1" style="stop-color:#00FFFF"/>
	</linearGradient>
	<circle class="st10" cx="-37.3" cy="46.5" r="17.8"/>
	
		<linearGradient id="SVGID_11_" gradientUnits="userSpaceOnUse" x1="-46.9662" y1="54.75" x2="-26.1662" y2="54.75" gradientTransform="matrix(1 0 0 -1 0 100)">
		<stop  offset="0" style="stop-color:#0071BC"/>
		<stop  offset="0.13" style="stop-color:#007BC1"/>
		<stop  offset="0.36" style="stop-color:#0097CE"/>
		<stop  offset="0.66" style="stop-color:#00C3E3"/>
		<stop  offset="1" style="stop-color:#00FFFF"/>
	</linearGradient>
	<circle class="st11" cx="-36.6" cy="45.2" r="10"/>
	
		<linearGradient id="SVGID_12_" gradientUnits="userSpaceOnUse" x1="-44.3662" y1="54.75" x2="-28.7662" y2="54.75" gradientTransform="matrix(1 0 0 -1 0 100)">
		<stop  offset="0" style="stop-color:#0071BC"/>
		<stop  offset="0.13" style="stop-color:#007BC1"/>
		<stop  offset="0.36" style="stop-color:#0097CE"/>
		<stop  offset="0.66" style="stop-color:#00C3E3"/>
		<stop  offset="1" style="stop-color:#00FFFF"/>
	</linearGradient>
	<circle class="st12" cx="-36.6" cy="45.2" r="7.5"/>
	
		<linearGradient id="SVGID_13_" gradientUnits="userSpaceOnUse" x1="-40.5662" y1="57" x2="-37.0662" y2="57" gradientTransform="matrix(1 0 0 -1 0 100)">
		<stop  offset="0" style="stop-color:#0071BC"/>
		<stop  offset="0.13" style="stop-color:#007BC1"/>
		<stop  offset="0.36" style="stop-color:#0097CE"/>
		<stop  offset="0.66" style="stop-color:#00C3E3"/>
		<stop  offset="1" style="stop-color:#00FFFF"/>
	</linearGradient>
	<circle class="st13" cx="-38.8" cy="43" r="1.8"/>
	
		<linearGradient id="SVGID_14_" gradientUnits="userSpaceOnUse" x1="-59.8862" y1="28.3004" x2="-15.1398" y2="28.3004" gradientTransform="matrix(1 0 0 -1 0 100)">
		<stop  offset="0" style="stop-color:#0071BC"/>
		<stop  offset="0.13" style="stop-color:#007BC1"/>
		<stop  offset="0.36" style="stop-color:#0097CE"/>
		<stop  offset="0.66" style="stop-color:#00C3E3"/>
		<stop  offset="1" style="stop-color:#00FFFF"/>
	</linearGradient>
	<polygon class="st14" points="-38.6,64.2 -58.6,79.2 -16.6,79.2 	"/>
	
		<linearGradient id="SVGID_15_" gradientUnits="userSpaceOnUse" x1="-31.4262" y1="93.25" x2="-31.4262" y2="60.07" gradientTransform="matrix(1 0 0 -1 0 100)">
		<stop  offset="0" style="stop-color:#0071BC"/>
		<stop  offset="0.13" style="stop-color:#007BC1"/>
		<stop  offset="0.36" style="stop-color:#0097CE"/>
		<stop  offset="0.66" style="stop-color:#00C3E3"/>
		<stop  offset="1" style="stop-color:#00FFFF"/>
	</linearGradient>
	<line class="st15" x1="-31.8" y1="39.4" x2="-31" y2="38.9"/>
	
		<linearGradient id="SVGID_16_" gradientUnits="userSpaceOnUse" x1="-8.0712" y1="93.25" x2="-8.0712" y2="60.07" gradientTransform="matrix(1 0 0 -1 0 100)">
		<stop  offset="0" style="stop-color:#0071BC"/>
		<stop  offset="0.13" style="stop-color:#007BC1"/>
		<stop  offset="0.36" style="stop-color:#0097CE"/>
		<stop  offset="0.66" style="stop-color:#00C3E3"/>
		<stop  offset="1" style="stop-color:#00FFFF"/>
	</linearGradient>
	<line class="st16" x1="-28.5" y1="37.1" x2="12.3" y2="8.7"/>
	
		<linearGradient id="SVGID_17_" gradientUnits="userSpaceOnUse" x1="-0.8765" y1="57.6808" x2="-32.0665" y2="46.3408" gradientTransform="matrix(1 0 0 -1 0 100)">
		<stop  offset="0" style="stop-color:#0071BC"/>
		<stop  offset="0.13" style="stop-color:#007BC1"/>
		<stop  offset="0.36" style="stop-color:#0097CE"/>
		<stop  offset="0.66" style="stop-color:#00C3E3"/>
		<stop  offset="1" style="stop-color:#00FFFF"/>
	</linearGradient>
	<line class="st17" x1="-31.7" y1="53.1" x2="-30.9" y2="53.7"/>
	
		<linearGradient id="SVGID_18_" gradientUnits="userSpaceOnUse" x1="7.1036" y1="35.7407" x2="-24.0764" y2="24.3907" gradientTransform="matrix(1 0 0 -1 0 100)">
		<stop  offset="0" style="stop-color:#0071BC"/>
		<stop  offset="0.13" style="stop-color:#007BC1"/>
		<stop  offset="0.36" style="stop-color:#0097CE"/>
		<stop  offset="0.66" style="stop-color:#00C3E3"/>
		<stop  offset="1" style="stop-color:#00FFFF"/>
	</linearGradient>
	<line class="st18" x1="-28.4" y1="55.5" x2="12.3" y2="84.1"/>
</g>
<linearGradient id="SVGID_19_" gradientUnits="userSpaceOnUse" x1="14.654" y1="14.9794" x2="-16.526" y2="3.6294" gradientTransform="matrix(1 0 0 -1 0 100)">
	<stop  offset="0" style="stop-color:#0071BC"/>
	<stop  offset="0.13" style="stop-color:#007BC1"/>
	<stop  offset="0.36" style="stop-color:#0097CE"/>
	<stop  offset="0.66" style="stop-color:#00C3E3"/>
	<stop  offset="1" style="stop-color:#00FFFF"/>
</linearGradient>
<line class="st19" x1="13.5" y1="85" x2="14.3" y2="85.6"/>
<linearGradient id="SVGID_20_" gradientUnits="userSpaceOnUse" x1="49.4188" y1="51.4095" x2="39.3304" y2="47.7446" gradientTransform="matrix(1 0 0 -1 0 100)">
	<stop  offset="0" style="stop-color:#00FF75"/>
	<stop  offset="1" style="stop-color:#00FFFF;stop-opacity:0.8"/>
</linearGradient>
<path class="st20" d="M46.9,56.8c-3.9,0-7-3.1-7-7s3.1-7,7-7"/>
<linearGradient id="SVGID_21_" gradientUnits="userSpaceOnUse" x1="-1100.5912" y1="722.4095" x2="-1110.6796" y2="718.7446" gradientTransform="matrix(-1 0 0 1 -1024.1423 -671.5)">
	<stop  offset="0" style="stop-color:#00FF75"/>
	<stop  offset="1" style="stop-color:#00FFFF;stop-opacity:0.8"/>
</linearGradient>
<path class="st21" d="M78.9,42.8c3.9,0,7,3.1,7,7s-3.1,7-7,7"/>
<linearGradient id="SVGID_22_" gradientUnits="userSpaceOnUse" x1="43.7761" y1="48.2622" x2="79.1348" y2="61.1236" gradientTransform="matrix(1 0 0 -1 0 100)">
	<stop  offset="0" style="stop-color:#00FF75"/>
	<stop  offset="1" style="stop-color:#00FFFF;stop-opacity:0.8"/>
</linearGradient>
<path class="st22" d="M46.9,57.7V44.3c0-9.1,7.2-16.5,16-16.5l0,0c8.8,0,16,7.4,16,16.5c0,0,0,0,0,0v13.4"/>
<linearGradient id="SVGID_23_" gradientUnits="userSpaceOnUse" x1="-1502.8483" y1="-3468.0796" x2="-1486.2683" y2="-3468.0796" gradientTransform="matrix(3.360415e-11 0.7485 0.7485 -3.360415e-11 2699.2134 1165.3788)">
	<stop  offset="0" style="stop-color:#00FF75"/>
	<stop  offset="1" style="stop-color:#00FFFF;stop-opacity:0.8"/>
</linearGradient>
<path class="st23" d="M106.8,52.7l5.3-5.3c0.1-0.1,0.1-0.2,0.2-0.3c0.1-0.2,0.1-0.4,0-0.7c-0.1-0.1-0.1-0.2-0.2-0.3l-5.2-5.2
	c-0.4-0.4-1-0.4-1.3,0c-0.1,0.1-0.3,0.4-0.3,0.7s0.1,0.4,0.3,0.7l3.7,3.7H94.5v1.9h14.7l-3.7,3.7c-0.1,0.1-0.3,0.4-0.3,0.7
	s0.1,0.4,0.3,0.7C105.8,53,106.4,53,106.8,52.7z"/>
<linearGradient id="SVGID_24_" gradientUnits="userSpaceOnUse" x1="1572.0961" y1="989.7613" x2="1588.676" y2="989.7613" gradientTransform="matrix(0.7485 0 0 -0.7485 -1120.8479 749.7435)">
	<stop  offset="0" style="stop-color:#00FF75"/>
	<stop  offset="1" style="stop-color:#00FFFF;stop-opacity:0.8"/>
</linearGradient>
<path class="st24" d="M67.9,5.6l-5.3-5.3c-0.1-0.1-0.2-0.1-0.3-0.2c-0.2-0.1-0.4-0.1-0.7,0c-0.1,0.1-0.2,0.1-0.3,0.2L56,5.5
	c-0.4,0.4-0.4,1,0,1.3c0.1,0.1,0.4,0.3,0.7,0.3c0.2,0,0.4-0.1,0.7-0.3l3.7-3.7v14.7h1.9V3.1l3.7,3.7c0.1,0.1,0.4,0.3,0.7,0.3
	s0.4-0.1,0.7-0.3C68.3,6.5,68.3,6,67.9,5.6z"/>
<linearGradient id="SVGID_25_" gradientUnits="userSpaceOnUse" x1="6127.271" y1="-2232.2437" x2="6143.8511" y2="-2232.2437" gradientTransform="matrix(-3.360415e-11 -0.7485 -0.7485 3.360415e-11 -1649.8571 4639.0396)">
	<stop  offset="0" style="stop-color:#00FF75"/>
	<stop  offset="1" style="stop-color:#00FFFF;stop-opacity:0.8"/>
</linearGradient>
<path class="st25" d="M17.6,40.8l-5.3,5.3c-0.1,0.1-0.1,0.2-0.2,0.3c-0.1,0.2-0.1,0.4,0,0.7c0.1,0.1,0.1,0.2,0.2,0.3l5.2,5.2
	c0.4,0.4,1,0.4,1.3,0c0.1-0.1,0.3-0.4,0.3-0.7s-0.1-0.4-0.3-0.7l-3.7-3.7h14.7v-1.9H15.2l3.7-3.7c0.1-0.1,0.3-0.4,0.3-0.7
	c0-0.2-0.1-0.4-0.3-0.7C18.5,40.5,17.9,40.5,17.6,40.8z"/>
</svg>
