<svg id="Layer_1" data-name="Layer 1" xmlns="http://www.w3.org/2000/svg" xmlns:xlink="http://www.w3.org/1999/xlink" viewBox="0 0 170 165.31"><defs><style>.cls-1{opacity:0.22;fill:url(#linear-gradient);}.cls-2{fill:none;stroke:#bcbcbc;stroke-miterlimit:10;stroke-width:2.83px;}.cls-3{fill:#bcbcbc;}.cls-4{fill:#fff;}</style><linearGradient id="linear-gradient" x1="83.64" y1="8.28" x2="83.64" y2="83.06" gradientUnits="userSpaceOnUse"><stop offset="0" stop-color="#fff"/><stop offset="1" stop-color="#fff" stop-opacity="0"/></linearGradient></defs><title>helmet</title><ellipse class="cls-1" cx="83.64" cy="45.67" rx="52.61" ry="37.39"/><path class="cls-2" d="M872,305.32c0,39.21-33.46,71-74.74,71s-74.74-31.79-74.74-71" transform="translate(-713 -219.69)"/><ellipse class="cls-3" cx="821.89" cy="326.61" rx="9.94" ry="7.26" transform="translate(-744.59 -124.92) rotate(-6.47)"/><path class="cls-3" d="M870.27,305.34a20.17,20.17,0,0,1-.57,8.53c-21.33,15.5-40.58,15.38-40.58,15.38l1.77-6.18C857.89,318.29,870.27,305.34,870.27,305.34Z" transform="translate(-713 -219.69)"/><path class="cls-4" d="M724.24,272.6a103.53,103.53,0,0,1,28.28-36.39,80.51,80.51,0,0,1,9.91-6.82,70.69,70.69,0,0,1,23-8.67,68.78,68.78,0,0,1,12.5-1A71.84,71.84,0,0,1,810.39,221a75.55,75.55,0,0,1,11.85,3.51,83.45,83.45,0,0,1,20.84,12A100.42,100.42,0,0,1,859.71,253a103.11,103.11,0,0,1,6.69,9.43,71.5,71.5,0,0,1,5.36,10.17c-5.73-5.05-11.46-9.77-17.36-14.13a165.83,165.83,0,0,0-18.08-11.79c-12.33-6.89-25.45-11.34-38.58-11.49s-26.14,4-38.33,11a162,162,0,0,0-17.83,12.11C735.75,262.8,730.12,267.7,724.24,272.6Z" transform="translate(-713 -219.69)"/><path class="cls-3" d="M725.46,272.23a92.66,92.66,0,0,1,6.34-8.32c1.17-1.3,2.39-2.54,3.6-3.81a50.3,50.3,0,0,1,3.8-3.65c1.33-1.15,2.69-2.27,4-3.42.34-.28.67-.58,1-.85l1.08-.77,2.18-1.53c1.45-1,2.89-2.09,4.44-3s3.09-1.82,4.67-2.67a87.28,87.28,0,0,1,42.1-10.41,90.31,90.31,0,0,1,32.07,6.28c1.67.71,3.34,1.36,5,2.11s3.23,1.57,4.81,2.4a92.93,92.93,0,0,1,17.48,12.08c1.33,1.16,2.6,2.38,3.86,3.6s2.46,2.5,3.6,3.85a53.31,53.31,0,0,1,6.23,8.46c-6.35-2.93-12.44-5.61-18.59-8s-12.19-4.49-18.27-6.22a137.7,137.7,0,0,0-36.36-5.6,111.3,111.3,0,0,0-18.11,1.23l-2.26.34c-.75.12-1.52.18-2.26.37-1.5.33-3,.61-4.53.9l-1.14.23-1.12.3c-.75.19-1.49.41-2.25.58-1.51.38-3.06.68-4.54,1.21s-3,.91-4.54,1.36a23.14,23.14,0,0,0-2.26.77c-.74.28-1.5.52-2.26.79-3.07,1-6,2.23-9.12,3.42-.76.3-1.56.55-2.31.89s-1.5.68-2.27,1c-1.53.64-3.06,1.32-4.65,1.94C731.84,269.51,728.77,271,725.46,272.23Z" transform="translate(-713 -219.69)"/><rect class="cls-4" x="2.93" y="50.13" width="11.72" height="46.8" rx="3.95" ry="3.95"/><rect class="cls-4" x="155.34" y="50.13" width="11.72" height="46.8" rx="3.95" ry="3.95"/><rect class="cls-3" y="66.27" width="2.93" height="12.91" rx="0.99" ry="0.99"/><rect class="cls-3" x="167.07" y="67.88" width="2.93" height="12.91" rx="0.99" ry="0.99"/><path class="cls-3" d="M739.38,358.57C796.53,394.08,856.62,357,856.62,357v9.68c-64.48,40.35-117.24,1.61-117.24,1.61Z" transform="translate(-713 -219.69)"/><path class="cls-4" d="M733.52,344.05c63.66,38.73,127.5,0,127.5,0v11.29c-70.35,46.8-127.5,0-127.5,0Z" transform="translate(-713 -219.69)"/></svg>